<svg width="10518" height="9353" viewBox="0 0 10518 9353" fill="none" xmlns="http://www.w3.org/2000/svg">
<path d="M9923.82 4333.17C9923.82 4846.02 9800.64 5354.11 9560.99 5828.53C9321.3 6302.99 8969.71 6734.66 8525.82 7098.63C8081.91 7462.61 7554.52 7751.66 6973.6 7948.96C6392.69 8146.26 5769.87 8247.87 5140.76 8247.87C4511.65 8247.87 3888.83 8146.26 3307.92 7948.96C2727 7751.66 2199.6 7462.61 1755.7 7098.63C1311.81 6734.66 960.213 6302.99 720.532 5828.53C480.873 5354.11 357.695 4846.02 357.695 4333.17C357.695 3820.31 480.873 3312.22 720.532 2837.8C960.213 2363.34 1311.81 1931.67 1755.7 1567.7C2199.6 1203.72 2727 914.672 3307.92 717.37C3888.83 520.07 4511.65 418.461 5140.76 418.461C5769.87 418.461 6392.69 520.07 6973.6 717.37C7554.52 914.672 8081.91 1203.72 8525.82 1567.7C8969.71 1931.67 9321.3 2363.34 9560.99 2837.8C9800.64 3312.22 9923.82 3820.31 9923.82 4333.17Z" stroke="#7C3AED" stroke-width="80" stroke-linejoin="round"/>
<path fill-rule="evenodd" clip-rule="evenodd" d="M6858.29 99.1264L2445.65 3785.21L4824.24 3853.32L1050.35 6928.65L2648.9 6953.1L0.296875 9352.32L6400.19 6425.78L4017.82 6446.39L8840.15 3289L6231.64 3283.73L10517.4 0.75L6858.44 99.1502L6858.29 99.1264Z" fill="#7C3AED"/>
</svg>
